<svg xmlns="http://www.w3.org/2000/svg" version="1.1" xmlns:xlink="http://www.w3.org/1999/xlink" xmlns:svgjs="http://svgjs.dev/svgjs" width="1440" height="560" preserveAspectRatio="none" viewBox="0 0 1440 560"><g mask="url(&quot;#SvgjsMask1011&quot;)" fill="none"><rect width="1440" height="560" x="0" y="0" fill="rgba(239, 49, 108, 1)"></rect><path d="M0,686.463C126.283,678.581,198.72,542.485,299.289,465.703C390.158,396.326,526.778,365.5,562.598,256.93C598.495,148.126,494.084,44.689,475.492,-68.365C457.444,-178.108,508.913,-297.124,455.444,-394.645C398.184,-499.08,293.502,-576.845,178.906,-609.297C64.76,-641.622,-59.792,-620.421,-167.692,-571.108C-267.61,-525.443,-320.561,-422.716,-398.579,-345.371C-484.508,-260.182,-633.247,-213.288,-649.561,-93.393C-665.893,26.633,-532.975,110.559,-475.098,216.97C-422.302,314.04,-402.899,426.953,-324.302,504.623C-234.327,593.537,-126.25,694.343,0,686.463" fill="#d6114e"></path><path d="M1440 968.175C1524.411 958.596 1618.321 994.573 1688.811 947.158 1759.109 899.8720000000001 1764.106 801.117 1801.431 725.06 1840.088 646.289 1911.238 579.86 1912.123 492.119 1913.0529999999999 399.913 1866.463 312.48 1806.297 242.60199999999998 1746.02 172.59500000000003 1664.93 121.303 1574.924 100.49200000000002 1487.713 80.32799999999997 1399.536 104.5 1313.336 128.623 1226.113 153.03199999999998 1139.492 180.70100000000002 1072.094 241.20800000000003 998.948 306.876 922.723 386.642 916.649 484.753 910.638 581.845 1001.175 653.465 1041.08 742.181 1081.291 831.578 1066.753 959.754 1152.042 1008.071 1238.098 1056.8229999999999 1341.725 979.327 1440 968.175" fill="#f36692"></path></g><defs><mask id="SvgjsMask1011"><rect width="1440" height="560" fill="#ffffff"></rect></mask></defs></svg>